<svg width="24" height="24" viewBox="0 0 24 24" fill="none" xmlns="http://www.w3.org/2000/svg">
<path d="M12 2C17.5228 2 22 6.47715 22 12C22 17.5228 17.5228 22 12 22C6.47715 22 2 17.5228 2 12C2 6.47715 6.47715 2 12 2ZM16.6406 8.23145C16.2164 7.87791 15.585 7.93519 15.2314 8.35938L10.9316 13.5176L8.70703 11.293C8.31651 10.9024 7.68349 10.9024 7.29297 11.293C6.90244 11.6835 6.90244 12.3165 7.29297 12.707L10.293 15.707C10.4915 15.9056 10.7644 16.0116 11.0449 15.999C11.3256 15.9863 11.5887 15.8564 11.7686 15.6406L16.7686 9.64062C17.1221 9.21638 17.0648 8.58502 16.6406 8.23145Z" fill="#008700"/>
</svg>
