<svg width="24" height="24" viewBox="0 0 24 24" fill="none" xmlns="http://www.w3.org/2000/svg">
<path d="M10.2435 4.01715C11.0112 2.67906 12.9409 2.6767 13.7113 4.01324L21.7718 18.0015C22.5401 19.3347 21.5781 20.9993 20.0394 20.9996H3.95345C2.41629 20.9996 1.45317 19.3378 2.2181 18.0045L10.2435 4.01715ZM12.0003 15.9996C11.4482 15.9996 11.0006 16.4475 11.0003 16.9996C11.0003 17.5519 11.448 17.9996 12.0003 17.9996C12.5525 17.9994 13.0003 17.5517 13.0003 16.9996C13.0001 16.4476 12.5523 15.9997 12.0003 15.9996ZM12.0003 7.99957C11.4482 7.99957 11.0006 8.44748 11.0003 8.99957V13.9996C11.0003 14.5519 11.448 14.9996 12.0003 14.9996C12.5525 14.9994 13.0003 14.5517 13.0003 13.9996V8.99957C13.0001 8.44759 12.5523 7.99974 12.0003 7.99957Z" fill="#FF7300"/>
</svg>
