<svg width="32" height="32" viewBox="0 0 32 32" fill="none" xmlns="http://www.w3.org/2000/svg">
<path d="M16 2.66699C23.3638 2.66699 29.333 8.6362 29.333 16C29.333 23.3638 23.3638 29.333 16 29.333C8.6362 29.333 2.66699 23.3638 2.66699 16C2.66699 8.6362 8.6362 2.66699 16 2.66699ZM16 13.333C15.2636 13.333 14.667 13.9306 14.667 14.667V21.333C14.667 22.0694 15.2636 22.667 16 22.667C16.7364 22.667 17.333 22.0694 17.333 21.333V14.667C17.333 13.9306 16.7364 13.333 16 13.333ZM16 9.33301C15.2636 9.33301 14.667 9.93061 14.667 10.667C14.6672 11.4032 15.2637 12 16 12C16.7363 12 17.3328 11.4032 17.333 10.667C17.333 9.93061 16.7364 9.33301 16 9.33301Z" fill="#2A68DA"/>
</svg>
