<svg width="32" height="32" viewBox="0 0 32 32" fill="none" xmlns="http://www.w3.org/2000/svg">
<path d="M16 2.66699C23.3638 2.66699 29.333 8.6362 29.333 16C29.333 23.3638 23.3638 29.333 16 29.333C8.6362 29.333 2.66699 23.3638 2.66699 16C2.66699 8.6362 8.6362 2.66699 16 2.66699ZM21.9736 11.2314C21.5495 10.8783 20.919 10.9356 20.5654 11.3594L14.5986 18.5176L11.374 15.293C10.9836 14.9025 10.3505 14.9026 9.95996 15.293C9.56944 15.6835 9.56944 16.3165 9.95996 16.707L13.96 20.707C14.1585 20.9055 14.4315 21.0116 14.7119 20.999C14.9924 20.9862 15.2558 20.8563 15.4355 20.6406L22.1016 12.6406C22.4549 12.2164 22.3977 11.585 21.9736 11.2314Z" fill="#008700"/>
</svg>
