<svg width="32" height="32" viewBox="0 0 32 32" fill="none" xmlns="http://www.w3.org/2000/svg">
<path d="M14.2341 4.35061C15.0017 3.01256 16.9314 3.01037 17.7018 4.34671L29.6052 25.001C30.3735 26.3342 29.4114 27.9998 27.8727 28H4.1198C2.58264 28 1.6205 26.3382 2.38543 25.0049L14.2341 4.35061ZM15.9997 21.333C15.2634 21.3332 14.6667 21.9307 14.6667 22.667C14.6669 23.4031 15.2636 23.9999 15.9997 24C16.7359 24 17.3335 23.4032 17.3337 22.667C17.3337 21.9306 16.7361 21.333 15.9997 21.333ZM15.9997 10.667C15.2634 10.6672 14.6667 11.2637 14.6667 12V18.667C14.6669 19.4031 15.2636 19.9999 15.9997 20C16.7359 20 17.3335 19.4032 17.3337 18.667V12C17.3337 11.2636 16.7361 10.667 15.9997 10.667Z" fill="#FF7300"/>
</svg>
